<svg xmlns="http://www.w3.org/2000/svg" viewBox="0 0 3500 1500"><title>Logo</title><path d="M1329.03846,740.504V594.26475c0-43.2832,29.416-75.2207,71.85938-75.2207h44.123a5.07689,5.07689,0,0,1,5.46387,5.46289v23.95312c0,3.78223-2.10156,5.88379-5.46387,5.88379h-41.18164c-21.85156,0-36.55957,16.8086-36.55957,40.76172v53.36914H1434.516c3.78125,0,5.88281,2.10059,5.88281,5.88281v22.69239c0,3.78222-2.10156,5.88281-5.88281,5.88281h-67.23633v56.73047c0,23.95312,14.708,40.76269,36.55957,40.76269h41.18164c3.36231,0,5.46387,2.10059,5.46387,5.88282v23.95312a5.07689,5.07689,0,0,1-5.46387,5.46289h-44.123C1358.45448,815.72471,1329.03846,783.78721,1329.03846,740.504Z"/><path d="M1485.3617,808.58116V593.004c0-45.38379,28.15528-77.32129,71.8584-77.32129,43.7041,0,72.2793,31.9375,72.2793,77.32129V808.58116c0,3.78125-2.10156,5.88281-5.88379,5.88281H1597.142a5.51322,5.51322,0,0,1-5.88379-5.88281V591.32334c0-23.95312-13.02637-39.92187-34.03809-39.92187s-34.03808,15.96875-34.03808,39.92187V808.58116c0,3.78125-2.10157,5.88281-5.46289,5.88281h-26.89454C1487.46229,814.464,1485.3617,812.36241,1485.3617,808.58116Z"/><path d="M1670.25819,741.34483V593.004c0-45.80469,28.99512-77.32129,72.69922-77.32129,42.02246,0,71.01855,31.5166,72.27929,76.48144,0,3.78223-2.10156,5.88282-5.46386,5.88282h-26.89453c-3.36133,0-5.46289-2.10059-5.88282-5.88282-1.26074-25.63379-13.86718-40.76269-34.03808-40.76269-21.43164,0-34.459,15.54883-34.459,40.3418V743.02549c0,24.793,14.708,40.3418,36.13965,40.3418,21.01172,0,35.71973-15.54883,35.71973-37.40039V688.81651h-28.9961c-3.78222,0-5.88281-2.10156-5.88281-5.46387V661.08116c0-3.78223,2.10059-5.88282,5.88281-5.88282h49.58692c10.92578,0,17.22949,6.30274,17.22949,17.22852v71.43945c0,43.28321-30.25684,75.21973-73.96,75.21973C1700.51405,819.086,1670.25819,787.14952,1670.25819,741.34483Z"/><path d="M1862.724,520.30479h26.47461a5.07614,5.07614,0,0,1,5.46289,5.46289V808.58116c0,3.78125-2.10059,5.88281-5.46289,5.88281H1862.724c-3.78125,0-5.88281-2.10156-5.88281-5.88281V525.76768C1856.8412,522.40635,1858.94276,520.30479,1862.724,520.30479Z"/><path d="M1942.98768,808.58116V593.004c0-45.38379,28.15527-77.32129,71.85938-77.32129,43.70312,0,72.27832,31.9375,72.27832,77.32129V808.58116c0,3.78125-2.10059,5.88281-5.88282,5.88281H2054.768a5.513,5.513,0,0,1-5.88281-5.88281V591.32334c0-23.95312-13.02734-39.92187-34.03808-39.92187-21.01172,0-34.03907,15.96875-34.03907,39.92187V808.58116c0,3.78125-2.10058,5.88281-5.46289,5.88281h-26.89453C1945.08924,814.464,1942.98768,812.36241,1942.98768,808.58116Z"/><path d="M2127.88417,740.504V594.26475c0-43.2832,29.416-75.2207,71.85937-75.2207h44.12305a5.07688,5.07688,0,0,1,5.46386,5.46289v23.95312c0,3.78223-2.10156,5.88379-5.46386,5.88379H2202.685c-21.85157,0-36.55957,16.8086-36.55957,40.76172v53.36914h67.23632c3.78125,0,5.88282,2.10059,5.88282,5.88281v22.69239c0,3.78222-2.10157,5.88281-5.88282,5.88281h-67.23632v56.73047c0,23.95312,14.708,40.76269,36.55957,40.76269h41.18164c3.3623,0,5.46386,2.10059,5.46386,5.88282v23.95312a5.07688,5.07688,0,0,1-5.46386,5.46289h-44.12305C2157.30018,815.72471,2127.88417,783.78721,2127.88417,740.504Z"/><path d="M2279.58436,740.504V594.26475c0-43.2832,29.416-75.2207,71.85938-75.2207h44.123a5.07689,5.07689,0,0,1,5.46387,5.46289v23.95312c0,3.78223-2.10156,5.88379-5.46387,5.88379h-41.18164c-21.85156,0-36.55957,16.8086-36.55957,40.76172v53.36914h67.23633c3.78125,0,5.88281,2.10059,5.88281,5.88281v22.69239c0,3.78222-2.10156,5.88281-5.88281,5.88281h-67.23633v56.73047c0,23.95312,14.708,40.76269,36.55957,40.76269h41.18164c3.36231,0,5.46387,2.10059,5.46387,5.88282v23.95312a5.07689,5.07689,0,0,1-5.46387,5.46289h-44.123C2309.00038,815.72471,2279.58436,783.78721,2279.58436,740.504Z"/><path d="M2435.9076,808.58116V593.42491c0-45.80469,28.99512-77.74219,71.43848-77.74219,43.2832,0,72.69922,31.9375,72.69922,77.74219v33.61816c0,32.35742-15.54883,55.88965-37.40039,67.65625l44.96386,113.46094c1.26075,3.78222-1.68066,6.30371-5.46289,6.30371h-28.57519c-3.36133,0-5.043-1.68067-5.88281-5.043L2507.766,703.52452h-34.03808V808.58116c0,3.78125-2.10157,5.88281-5.4629,5.88281h-26.89453C2438.00819,814.464,2435.9076,812.36241,2435.9076,808.58116Zm70.17774-139.93555c21.85156,0,35.71875-15.96875,35.71875-40.7627V591.74327c0-24.37305-13.86719-40.3418-34.03809-40.3418s-34.03808,15.96875-34.03808,40.3418v76.90234Z"/><path d="M2630.88807,520.30479h26.47461a5.07662,5.07662,0,0,1,5.46289,5.46289V808.58116c0,3.78125-2.10156,5.88281-5.46289,5.88281h-26.47461c-3.78223,0-5.88281-2.10156-5.88281-5.88281V525.76768C2625.00526,522.40635,2627.10584,520.30479,2630.88807,520.30479Z"/><path d="M2711.15174,808.58116V593.004c0-45.38379,28.15528-77.32129,71.8584-77.32129,43.7041,0,72.2793,31.9375,72.2793,77.32129V808.58116c0,3.78125-2.10156,5.88281-5.88379,5.88281H2822.932a5.51322,5.51322,0,0,1-5.88379-5.88281V591.32334c0-23.95312-13.02637-39.92187-34.03809-39.92187s-34.03808,15.96875-34.03808,39.92187V808.58116c0,3.78125-2.10157,5.88281-5.46289,5.88281h-26.89454C2713.25233,814.464,2711.15174,812.36241,2711.15174,808.58116Z"/><path d="M2896.04823,741.34483V593.004c0-45.80469,28.99609-77.32129,72.69922-77.32129,42.02343,0,71.01855,31.5166,72.27929,76.48144,0,3.78223-2.10156,5.88282-5.46289,5.88282h-26.89453c-3.3623,0-5.46289-2.10059-5.88281-5.88282-1.26074-25.63379-13.86817-40.76269-34.03906-40.76269-21.43164,0-34.458,15.54883-34.458,40.3418V743.02549c0,24.793,14.708,40.3418,36.13965,40.3418,21.01074,0,35.71875-15.54883,35.71875-37.40039V688.81651h-28.99512c-3.78223,0-5.88379-2.10156-5.88379-5.46387V661.08116c0-3.78223,2.10156-5.88282,5.88379-5.88282h49.58594c10.92676,0,17.22949,6.30274,17.22949,17.22852v71.43945c0,43.28321-30.25586,75.21973-73.96,75.21973C2926.30506,819.086,2896.04823,787.14952,2896.04823,741.34483Z"/><path d="M2167.73084,888.68418a58.68076,58.68076,0,0,1,23.2754,4.67774,59.30391,59.30391,0,0,1,31.832,31.833,58.67721,58.67721,0,0,1,4.67773,23.27539v57.04687h-12.09375V984.29551a57.23306,57.23306,0,0,1-20.42285,17.34278,58.83021,58.83021,0,0,1-27.26856,6.38964,57.8411,57.8411,0,0,1-23.1621-4.67871,59.908,59.908,0,0,1-31.71778-31.71777,57.78581,57.78581,0,0,1-4.67773-23.16113,58.60922,58.60922,0,0,1,4.67773-23.27539,59.60247,59.60247,0,0,1,31.71778-31.833A57.85713,57.85713,0,0,1,2167.73084,888.68418Zm0,12.09375a45.882,45.882,0,0,0-18.48339,3.76563,49.64716,49.64716,0,0,0-15.17481,10.1543,47.50564,47.50564,0,0,0-14.03418,33.77246,45.88863,45.88863,0,0,0,3.76563,18.48339,48.38756,48.38756,0,0,0,25.44336,25.44239,45.882,45.882,0,0,0,18.48339,3.76562,47.50557,47.50557,0,0,0,33.77149-14.03418,49.64549,49.64549,0,0,0,10.15527-15.17383,45.90441,45.90441,0,0,0,3.76465-18.48339,46.73105,46.73105,0,0,0-3.76465-18.59766,46.96105,46.96105,0,0,0-25.33008-25.3291A46.71039,46.71039,0,0,0,2167.73084,900.77793Z"/><path d="M2306.01112,1007.5709a57.85243,57.85243,0,0,1-23.16113-4.67773,59.9028,59.9028,0,0,1-31.71875-31.71875,57.78582,57.78582,0,0,1-4.67774-23.16113,58.61277,58.61277,0,0,1,4.67774-23.2754,59.60247,59.60247,0,0,1,31.71875-31.832,57.85243,57.85243,0,0,1,23.16113-4.67773,43.17607,43.17607,0,0,1,17.456,3.53613,46.08861,46.08861,0,0,1,14.2627,9.69824l-8.44336,8.44336a32.87067,32.87067,0,0,0-10.49707-7.07422,32.48744,32.48744,0,0,0-12.77832-2.50976,45.8977,45.8977,0,0,0-18.4834,3.76465,49.6618,49.6618,0,0,0-15.1748,10.15527,47.501,47.501,0,0,0-14.03418,33.77149,45.89837,45.89837,0,0,0,3.76562,18.48339A48.3849,48.3849,0,0,0,2287.52772,991.94a45.89843,45.89843,0,0,0,18.4834,3.76563,32.40093,32.40093,0,0,0,23.27539-9.584l8.44336,8.44239a48.07769,48.07769,0,0,1-14.2627,9.46972A43.16031,43.16031,0,0,1,2306.01112,1007.5709Z"/><path d="M2406.86854,888.68418a58.68071,58.68071,0,0,1,23.27539,4.67774,59.30391,59.30391,0,0,1,31.832,31.833,58.67722,58.67722,0,0,1,4.67774,23.27539v57.04687H2454.56V984.29551a57.23309,57.23309,0,0,1-20.42286,17.34278,58.83014,58.83014,0,0,1-27.26855,6.38964,57.84114,57.84114,0,0,1-23.16211-4.67871,59.90807,59.90807,0,0,1-31.71777-31.71777,57.78582,57.78582,0,0,1-4.67774-23.16113,58.60923,58.60923,0,0,1,4.67774-23.27539,59.6025,59.6025,0,0,1,31.71777-31.833A57.85718,57.85718,0,0,1,2406.86854,888.68418Zm0,12.09375a45.88209,45.88209,0,0,0-18.4834,3.76563,49.64723,49.64723,0,0,0-15.1748,10.1543,47.50553,47.50553,0,0,0-14.03418,33.77246,45.8888,45.8888,0,0,0,3.76562,18.48339,48.38766,48.38766,0,0,0,25.44336,25.44239,45.88209,45.88209,0,0,0,18.4834,3.76562A47.50552,47.50552,0,0,0,2440.64,982.12754a49.64534,49.64534,0,0,0,10.15528-15.17383,45.90458,45.90458,0,0,0,3.76465-18.48339,46.73123,46.73123,0,0,0-3.76465-18.59766,46.96114,46.96114,0,0,0-25.33008-25.3291A46.71042,46.71042,0,0,0,2406.86854,900.77793Z"/><path d="M2546.517,888.68418a57.28258,57.28258,0,0,1,27.15527,6.50293,60.79983,60.79983,0,0,1,20.53711,17.457V834.37461h11.86523V948.47032a57.85247,57.85247,0,0,1-4.67773,23.16113,59.90807,59.90807,0,0,1-31.71777,31.71777,59.66935,59.66935,0,0,1-46.32325,0,59.91427,59.91427,0,0,1-31.71875-31.71777,57.8025,57.8025,0,0,1-4.67773-23.16113,58.62625,58.62625,0,0,1,4.67773-23.27539,59.60861,59.60861,0,0,1,31.71875-31.833A57.85252,57.85252,0,0,1,2546.517,888.68418Zm0,12.09375a45.88885,45.88885,0,0,0-18.4834,3.76563,49.6591,49.6591,0,0,0-15.17481,10.1543,47.49939,47.49939,0,0,0-14.0332,33.77246,45.90441,45.90441,0,0,0,3.76465,18.48339,48.38756,48.38756,0,0,0,25.44336,25.44239,47.24534,47.24534,0,0,0,36.9668,0,48.38766,48.38766,0,0,0,25.44336-25.44239,45.8888,45.8888,0,0,0,3.76562-18.48339,47.50553,47.50553,0,0,0-14.03418-33.77246,49.68258,49.68258,0,0,0-15.1748-10.1543A45.9092,45.9092,0,0,0,2546.517,900.77793Z"/><path d="M2685.71034,1008.7125a58.6609,58.6609,0,0,1-23.27539-4.67871,59.60506,59.60506,0,0,1-31.832-31.71777,57.78651,57.78651,0,0,1-4.67872-23.16113,58.61,58.61,0,0,1,4.67872-23.27539,59.30391,59.30391,0,0,1,31.832-31.833,58.67722,58.67722,0,0,1,23.27539-4.67774,57.8627,57.8627,0,0,1,23.16113,4.67774,59.5999,59.5999,0,0,1,31.71875,31.833,58.67721,58.67721,0,0,1,4.67773,23.27539v2.96582a21.44681,21.44681,0,0,1-.22753,2.96679H2638.24647a46.26017,46.26017,0,0,0,5.249,16.42969,50.20127,50.20127,0,0,0,10.38282,13.23535,46.17979,46.17979,0,0,0,14.48925,8.89942,47.37927,47.37927,0,0,0,17.34278,3.19433,31.85333,31.85333,0,0,0,12.55078-2.50976,32.75935,32.75935,0,0,0,10.49707-7.07422l8.44238,8.44336a45.209,45.209,0,0,1-14.0332,9.46972A43.18123,43.18123,0,0,1,2685.71034,1008.7125Zm47.23535-65.49121a46.31755,46.31755,0,0,0-5.24805-16.42968,50.34048,50.34048,0,0,0-10.38281-13.23438,46.67847,46.67847,0,0,0-31.60449-12.09473,47.44062,47.44062,0,0,0-17.34278,3.19532,46.28739,46.28739,0,0,0-14.48925,8.89941,50.25976,50.25976,0,0,0-10.38282,13.23438,46.26012,46.26012,0,0,0-5.249,16.42968Z"/><path d="M2809.38905,888.9127a43.08688,43.08688,0,0,1,22.59082,6.16113,45.34482,45.34482,0,0,1,16.20215,16.42969,45.603,45.603,0,0,1,16.08691-16.42969,42.90347,42.90347,0,0,1,22.70508-6.16113,43.42621,43.42621,0,0,1,17.34277,3.53613,44.62871,44.62871,0,0,1,23.84571,23.84668,43.42585,43.42585,0,0,1,3.5371,17.3418v72.1084h-12.09375v-72.1084a32.35,32.35,0,0,0-32.63183-32.63086,33.31229,33.31229,0,0,0-12.89258,2.50976,31.98513,31.98513,0,0,0-17.45605,17.34278,32.422,32.422,0,0,0-2.51075,12.77832v72.1084H2842.2494v-72.1084a31.28176,31.28176,0,0,0-2.625-12.77832,34.001,34.001,0,0,0-7.07324-10.38281,32.38853,32.38853,0,0,0-23.16211-9.46973,33.31229,33.31229,0,0,0-12.89258,2.50976,31.99343,31.99343,0,0,0-17.45605,17.34278,32.422,32.422,0,0,0-2.51075,12.77832v72.1084h-11.86523v-72.1084a43.359,43.359,0,0,1,3.53711-17.3418,44.93283,44.93283,0,0,1,23.73144-23.84668A43.15263,43.15263,0,0,1,2809.38905,888.9127Z"/><path d="M2999.24256,1008.02793a43.15437,43.15437,0,0,1-17.457-3.53711,45.24292,45.24292,0,0,1-23.73144-23.73242,43.08465,43.08465,0,0,1-3.53711-17.45605V891.42246h12.09375v71.87989a33.24127,33.24127,0,0,0,2.51074,12.89258,31.9934,31.9934,0,0,0,17.3418,17.457,32.87324,32.87324,0,0,0,35.94043-6.96,33.60191,33.60191,0,0,0,7.07422-10.49707,32.068,32.068,0,0,0,2.624-12.89258V891.42246h11.86621V1018.524a43.17786,43.17786,0,0,1-3.53711,17.457,45.24292,45.24292,0,0,1-23.73242,23.73144,43.16019,43.16019,0,0,1-17.45606,3.53711V1051.3834a31.28108,31.28108,0,0,0,12.77832-2.624,33.72836,33.72836,0,0,0,17.457-17.45606,31.28235,31.28235,0,0,0,2.624-12.77929V993.652a45.89582,45.89582,0,0,1-14.60449,10.49609A43.22367,43.22367,0,0,1,2999.24256,1008.02793Z"/><path d="M2108.17323,946.64512c0-1.77246.08691-3.51929.23193-5.249h-779.3667v11.86621h779.49439A62.05063,62.05063,0,0,1,2108.17323,946.64512Z"/><path d="M2625.9242,947.32969q0-3.00806.282-5.93359h-20.1316v5.249a61.92408,61.92408,0,0,1-.36035,6.61719h20.49243Q2625.92726,950.33958,2625.9242,947.32969Z"/><path d="M2487.31922,953.26231a62.05292,62.05292,0,0,1-.35986-6.61719c0-1.77246.08716-3.51929.23218-5.249h-20.77027c.14527,1.72973.23243,3.47656.23243,5.249v6.61719Z"/><path d="M2246.86952,953.26231a61.79979,61.79979,0,0,1-.416-7.07422c0-1.61694.07813-3.21069.19873-4.792h-19.36865c.14526,1.72973.23242,3.47656.23242,5.249v6.61719Z"/><path d="M1184.51976,689.90882c-.984,6.00829-1.89541,12.02957-2.96366,18.02287-9.80248,54.998-41.40922,92.80929-91.72486,115.54772-28.56942,12.91091-58.85861,18.56418-90.07368,19.02511-27.28839.40292-54.58611.18212-81.87969.23611-1.803.00356-3.606.00042-6.00732.00042V985.63947H807.34205V509.4508c1.55893-.11251,3.14938-.32842,4.73971-.32752,67.57077.038,135.1571-.76531,202.707.45115,45.4012.8176,87.162,14.13852,121.3999,45.72142,24.84346,22.917,39.1956,51.61028,45.16738,84.67469,1.13933,6.30858,2.11338,12.647,3.16376,18.97166ZM911.825,603.82327c-.10018,1.611-.25065,2.90408-.25095,4.19717-.01244,45.60088.03664,91.20189-.09439,136.80239-.01134,3.94512,1.13038,5.11918,5.04815,5.09744,25.96176-.1441,51.928.16492,77.88528-.20574a132.64714,132.64714,0,0,0,26.172-2.89742c33.63372-7.324,55.889-32.56868,57.49222-64.54971.87613-17.47753-1.42778-34.263-12.10328-48.83969-15.00062-20.48225-36.74592-28.371-60.71038-29.34908-30.23962-1.23419-60.56118-.46076-90.84744-.54146C913.75786,603.53542,913.09921,603.67783,911.825,603.82327Z" style="fill:#ed2642"/><path d="M394.51634,916.53062c20.72915-24.82316,41.085-49.19925,61.65328-73.82975,5.09868,3.90912,9.91162,7.68163,14.80942,11.34053,28.03668,20.94483,58.42635,36.93157,93.20414,43.25452,23.093,4.19857,46.24723,5.36976,69.12242-1.47732,9.84961-2.94824,18.61317-7.78515,25.66115-15.58747,12.15633-13.45739,14.46314-43.39442-7.11968-57.69547-15.19276-10.06688-32.13735-15.84571-49.35448-20.91334-28.0214-8.2477-56.31591-15.59531-84.20293-24.26309-22.45668-6.97993-43.77536-16.741-62.46228-31.4634-21.59441-17.013-34.56177-39.20017-39.37663-66.15531-5.24061-29.33869-4.45928-58.33889,6.70936-86.34378,15.73376-39.45175,45.39347-64.372,84.397-78.9925,30.78762-11.54074,62.77-13.68279,95.297-11.43641,34.68243,2.39524,67.86261,10.47574,99.39664,25.17973,19.56521,9.12306,44.59088,24.84745,55.12307,34.77211l-54.0901,78.43056c-4.47991-2.91516-8.46871-5.56358-12.50891-8.1312-25.83233-16.41688-52.91961-29.976-83.25761-35.89637-18.62826-3.63521-37.34381-4.55392-55.82855.65942-14.86038,4.19118-27.60391,11.77228-32.43193,27.46635-5.12067,16.64531-1.24792,35.49753,16.80641,46.33463,14.25971,8.55935,29.91,13.56525,45.67961,18.21151,27.6957,8.16006,55.661,15.45182,83.16377,24.20587,23.86088,7.59488,46.29937,18.499,65.80669,34.63714,24.03985,19.8878,37.08457,45.56072,40.15218,76.48725,2.78685,28.0966.35972,55.52285-11.29324,81.53738-16.18394,36.12982-44.62158,58.83532-80.9918,72.495-29.7476,11.17247-60.71416,14.31191-92.20164,13.16745C515.45293,989.947,452.68261,966.01646,398.414,920.1144,397.16362,919.05677,395.99864,917.8981,394.51634,916.53062Z" style="fill:#ed2642"/></svg>