<svg xmlns="http://www.w3.org/2000/svg" viewBox="0 0 3500 1500"><title>Logo</title><path d="M1402.11736,733.1874V586.94814c0-43.2832,29.416-75.2207,71.85937-75.2207h44.123a5.07689,5.07689,0,0,1,5.46387,5.46289v23.95312c0,3.78223-2.10157,5.88379-5.46387,5.88379h-41.18164c-21.85157,0-36.55957,16.8086-36.55957,40.76172V641.1581h67.23633c3.78125,0,5.88281,2.10059,5.88281,5.88281V669.7333c0,3.78222-2.10156,5.88281-5.88281,5.88281h-67.23633v56.73047c0,23.95312,14.708,40.76269,36.55957,40.76269h41.18164c3.3623,0,5.46387,2.10059,5.46387,5.88282v23.95312a5.07689,5.07689,0,0,1-5.46387,5.46289h-44.123C1431.53337,808.4081,1402.11736,776.4706,1402.11736,733.1874Z"/><path d="M1558.4406,801.26455V585.6874c0-45.38379,28.15527-77.32129,71.8584-77.32129,43.7041,0,72.27929,31.9375,72.27929,77.32129V801.26455c0,3.78125-2.10156,5.88281-5.88379,5.88281h-26.47363a5.51323,5.51323,0,0,1-5.88379-5.88281V584.00674c0-23.95313-13.02636-39.92188-34.03808-39.92188s-34.03809,15.96875-34.03809,39.92188V801.26455c0,3.78125-2.10156,5.88281-5.46289,5.88281h-26.89453C1560.54118,807.14736,1558.4406,805.0458,1558.4406,801.26455Z"/><path d="M1743.33708,734.02822V585.6874c0-45.80469,28.99512-77.32129,72.69922-77.32129,42.02246,0,71.01856,31.5166,72.2793,76.48145,0,3.78222-2.10156,5.88281-5.46387,5.88281H1855.9572c-3.36133,0-5.46289-2.10059-5.88281-5.88281-1.26074-25.63379-13.86719-40.7627-34.03809-40.7627-21.43164,0-34.459,15.54883-34.459,40.3418V735.70888c0,24.793,14.708,40.3418,36.13965,40.3418,21.01171,0,35.71972-15.54883,35.71972-37.40039V681.4999H1824.4406c-3.78223,0-5.88281-2.10156-5.88281-5.46387V653.76455c0-3.78223,2.10058-5.88281,5.88281-5.88281h49.58691c10.92578,0,17.22949,6.30273,17.22949,17.22851V736.5497c0,43.28321-30.25683,75.21973-73.96,75.21973C1773.59294,811.76943,1743.33708,779.83291,1743.33708,734.02822Z"/><path d="M1935.8029,512.98818h26.47461a5.07614,5.07614,0,0,1,5.46289,5.46289V801.26455c0,3.78125-2.10058,5.88281-5.46289,5.88281H1935.8029c-3.78125,0-5.88281-2.10156-5.88281-5.88281V518.45107C1929.92009,515.08974,1932.02165,512.98818,1935.8029,512.98818Z"/><path d="M2016.06657,801.26455V585.6874c0-45.38379,28.15528-77.32129,71.85938-77.32129,43.70312,0,72.27832,31.9375,72.27832,77.32129V801.26455c0,3.78125-2.10059,5.88281-5.88281,5.88281h-26.47461a5.513,5.513,0,0,1-5.88281-5.88281V584.00674c0-23.95313-13.02735-39.92188-34.03809-39.92188-21.01172,0-34.03906,15.96875-34.03906,39.92188V801.26455c0,3.78125-2.10059,5.88281-5.46289,5.88281h-26.89453C2018.16814,807.14736,2016.06657,805.0458,2016.06657,801.26455Z"/><path d="M2200.96306,733.1874V586.94814c0-43.2832,29.416-75.2207,71.85937-75.2207h44.123a5.07689,5.07689,0,0,1,5.46387,5.46289v23.95312c0,3.78223-2.10156,5.88379-5.46387,5.88379h-41.18164c-21.85156,0-36.55957,16.8086-36.55957,40.76172V641.1581h67.23633c3.78125,0,5.88281,2.10059,5.88281,5.88281V669.7333c0,3.78222-2.10156,5.88281-5.88281,5.88281h-67.23633v56.73047c0,23.95312,14.708,40.76269,36.55957,40.76269h41.18164c3.36231,0,5.46387,2.10059,5.46387,5.88282v23.95312a5.07689,5.07689,0,0,1-5.46387,5.46289h-44.123C2230.37907,808.4081,2200.96306,776.4706,2200.96306,733.1874Z"/><path d="M2352.66325,733.1874V586.94814c0-43.2832,29.416-75.2207,71.85938-75.2207h44.12305a5.07688,5.07688,0,0,1,5.46386,5.46289v23.95312c0,3.78223-2.10156,5.88379-5.46386,5.88379H2427.464c-21.85157,0-36.55957,16.8086-36.55957,40.76172V641.1581h67.23632c3.78125,0,5.88282,2.10059,5.88282,5.88281V669.7333c0,3.78222-2.10157,5.88281-5.88282,5.88281h-67.23632v56.73047c0,23.95312,14.708,40.76269,36.55957,40.76269h41.18164c3.3623,0,5.46386,2.10059,5.46386,5.88282v23.95312a5.07688,5.07688,0,0,1-5.46386,5.46289h-44.12305C2382.07927,808.4081,2352.66325,776.4706,2352.66325,733.1874Z"/><path d="M2508.9865,801.26455V586.1083c0-45.80469,28.99511-77.74219,71.43847-77.74219,43.28321,0,72.69922,31.9375,72.69922,77.74219v33.61816c0,32.35742-15.54883,55.88965-37.40039,67.65625l44.96387,113.46094c1.26074,3.78223-1.68067,6.30371-5.46289,6.30371h-28.5752c-3.36133,0-5.043-1.68066-5.88281-5.043L2580.8449,696.20791h-34.03809V801.26455c0,3.78125-2.10156,5.88281-5.46289,5.88281h-26.89453C2511.08708,807.14736,2508.9865,805.0458,2508.9865,801.26455ZM2579.16423,661.329c21.85156,0,35.71875-15.96875,35.71875-40.76269V584.42666c0-24.373-13.86719-40.3418-34.03808-40.3418s-34.03809,15.96875-34.03809,40.3418V661.329Z"/><path d="M2703.967,512.98818h26.4746a5.07662,5.07662,0,0,1,5.4629,5.46289V801.26455c0,3.78125-2.10157,5.88281-5.4629,5.88281H2703.967c-3.78223,0-5.88282-2.10156-5.88282-5.88281V518.45107C2698.08415,515.08974,2700.18474,512.98818,2703.967,512.98818Z"/><path d="M2784.23064,801.26455V585.6874c0-45.38379,28.15527-77.32129,71.8584-77.32129,43.7041,0,72.27929,31.9375,72.27929,77.32129V801.26455c0,3.78125-2.10156,5.88281-5.88379,5.88281h-26.47363a5.51323,5.51323,0,0,1-5.88379-5.88281V584.00674c0-23.95313-13.02637-39.92188-34.03808-39.92188s-34.03809,15.96875-34.03809,39.92188V801.26455c0,3.78125-2.10156,5.88281-5.46289,5.88281h-26.89453C2786.33122,807.14736,2784.23064,805.0458,2784.23064,801.26455Z"/><path d="M2969.12712,734.02822V585.6874c0-45.80469,28.9961-77.32129,72.69922-77.32129,42.02344,0,71.01856,31.5166,72.2793,76.48145,0,3.78222-2.10157,5.88281-5.46289,5.88281h-26.89453c-3.36231,0-5.4629-2.10059-5.88282-5.88281-1.26074-25.63379-13.86816-40.7627-34.03906-40.7627-21.43164,0-34.458,15.54883-34.458,40.3418V735.70888c0,24.793,14.708,40.3418,36.13965,40.3418,21.01074,0,35.71875-15.54883,35.71875-37.40039V681.4999h-28.99512c-3.78222,0-5.88379-2.10156-5.88379-5.46387V653.76455c0-3.78223,2.10157-5.88281,5.88379-5.88281h49.58594c10.92676,0,17.22949,6.30273,17.22949,17.22851V736.5497c0,43.28321-30.25586,75.21973-73.96,75.21973C2999.384,811.76943,2969.12712,779.83291,2969.12712,734.02822Z"/><path d="M2240.80974,881.36757a58.68071,58.68071,0,0,1,23.27539,4.67774,59.30391,59.30391,0,0,1,31.832,31.833,58.67722,58.67722,0,0,1,4.67774,23.27539v57.04687h-12.09375V976.9789a57.23309,57.23309,0,0,1-20.42286,17.34278,58.83017,58.83017,0,0,1-27.26855,6.38964,57.84114,57.84114,0,0,1-23.16211-4.67871,59.90807,59.90807,0,0,1-31.71777-31.71777,57.78582,57.78582,0,0,1-4.67774-23.16113,58.60923,58.60923,0,0,1,4.67774-23.27539,59.6025,59.6025,0,0,1,31.71777-31.833A57.85718,57.85718,0,0,1,2240.80974,881.36757Zm0,12.09375a45.88209,45.88209,0,0,0-18.4834,3.76563,49.64741,49.64741,0,0,0-15.1748,10.1543,47.50553,47.50553,0,0,0-14.03418,33.77246,45.88888,45.88888,0,0,0,3.76562,18.4834,48.38768,48.38768,0,0,0,25.44336,25.44238,45.88209,45.88209,0,0,0,18.4834,3.76562,47.50552,47.50552,0,0,0,33.77148-14.03418,49.64559,49.64559,0,0,0,10.15528-15.17382,45.90466,45.90466,0,0,0,3.76465-18.4834,46.73126,46.73126,0,0,0-3.76465-18.59766,46.96114,46.96114,0,0,0-25.33008-25.3291A46.71042,46.71042,0,0,0,2240.80974,893.46132Z"/><path d="M2379.09,1000.25429a57.85247,57.85247,0,0,1-23.16113-4.67773,59.9028,59.9028,0,0,1-31.71875-31.71875,57.78581,57.78581,0,0,1-4.67773-23.16113,58.61267,58.61267,0,0,1,4.67773-23.27539,59.60244,59.60244,0,0,1,31.71875-31.832,57.85247,57.85247,0,0,1,23.16113-4.67773,43.17615,43.17615,0,0,1,17.45606,3.53613,46.08854,46.08854,0,0,1,14.26269,9.69825l-8.44336,8.44335a32.87048,32.87048,0,0,0-10.49707-7.07421,32.48723,32.48723,0,0,0-12.77832-2.50977,45.8977,45.8977,0,0,0-18.4834,3.76465,49.66192,49.66192,0,0,0-15.1748,10.15527,47.501,47.501,0,0,0-14.03418,33.77149,45.89851,45.89851,0,0,0,3.76562,18.48339,48.3849,48.3849,0,0,0,25.44336,25.44336,45.89843,45.89843,0,0,0,18.4834,3.76563,32.40093,32.40093,0,0,0,23.27539-9.584l8.44336,8.44239a48.07758,48.07758,0,0,1-14.26269,9.46972A43.16023,43.16023,0,0,1,2379.09,1000.25429Z"/><path d="M2479.94743,881.36757a58.68068,58.68068,0,0,1,23.27539,4.67774,59.30389,59.30389,0,0,1,31.832,31.833,58.67721,58.67721,0,0,1,4.67773,23.27539v57.04687h-12.09375V976.9789a57.23306,57.23306,0,0,1-20.42285,17.34278,58.83021,58.83021,0,0,1-27.26856,6.38964,57.84118,57.84118,0,0,1-23.16211-4.67871,59.90807,59.90807,0,0,1-31.71777-31.71777,57.78581,57.78581,0,0,1-4.67773-23.16113,58.60922,58.60922,0,0,1,4.67773-23.27539,59.6025,59.6025,0,0,1,31.71777-31.833A57.85722,57.85722,0,0,1,2479.94743,881.36757Zm0,12.09375A45.882,45.882,0,0,0,2461.464,897.227a49.64734,49.64734,0,0,0-15.17481,10.1543,47.50564,47.50564,0,0,0-14.03418,33.77246,45.88872,45.88872,0,0,0,3.76563,18.4834,48.38759,48.38759,0,0,0,25.44336,25.44238,45.882,45.882,0,0,0,18.48339,3.76562,47.50557,47.50557,0,0,0,33.77149-14.03418,49.64557,49.64557,0,0,0,10.15527-15.17382,45.90449,45.90449,0,0,0,3.76465-18.4834,46.73109,46.73109,0,0,0-3.76465-18.59766,46.96105,46.96105,0,0,0-25.33008-25.3291A46.71039,46.71039,0,0,0,2479.94743,893.46132Z"/><path d="M2619.59587,881.36757a57.28262,57.28262,0,0,1,27.15528,6.50293,60.79971,60.79971,0,0,1,20.5371,17.457V827.058h11.86524V941.15371a57.85231,57.85231,0,0,1-4.67774,23.16113,59.90807,59.90807,0,0,1-31.71777,31.71777,59.66933,59.66933,0,0,1-46.32324,0,59.91427,59.91427,0,0,1-31.71875-31.71777,57.80251,57.80251,0,0,1-4.67774-23.16113,58.62625,58.62625,0,0,1,4.67774-23.27539,59.60861,59.60861,0,0,1,31.71875-31.833A57.85248,57.85248,0,0,1,2619.59587,881.36757Zm0,12.09375a45.88889,45.88889,0,0,0-18.4834,3.76563,49.65923,49.65923,0,0,0-15.1748,10.1543,47.49928,47.49928,0,0,0-14.0332,33.77246,45.90465,45.90465,0,0,0,3.76464,18.4834,48.38768,48.38768,0,0,0,25.44336,25.44238,47.24534,47.24534,0,0,0,36.9668,0,48.38768,48.38768,0,0,0,25.44336-25.44238,45.88888,45.88888,0,0,0,3.76562-18.4834,47.50553,47.50553,0,0,0-14.03418-33.77246,49.68276,49.68276,0,0,0-15.1748-10.1543A45.90917,45.90917,0,0,0,2619.59587,893.46132Z"/><path d="M2758.78923,1001.3959a58.661,58.661,0,0,1-23.27539-4.67872,59.60506,59.60506,0,0,1-31.832-31.71777,57.7865,57.7865,0,0,1-4.67871-23.16113,58.61,58.61,0,0,1,4.67871-23.27539,59.30391,59.30391,0,0,1,31.832-31.833,58.67728,58.67728,0,0,1,23.27539-4.67773,57.86269,57.86269,0,0,1,23.16113,4.67773,59.5999,59.5999,0,0,1,31.71875,31.833,58.67725,58.67725,0,0,1,4.67774,23.27539v2.96582a21.447,21.447,0,0,1-.22754,2.9668h-106.794a46.2602,46.2602,0,0,0,5.249,16.42968,50.20144,50.20144,0,0,0,10.38281,13.23535,46.17965,46.17965,0,0,0,14.48926,8.89942,47.37918,47.37918,0,0,0,17.34277,3.19433,31.8533,31.8533,0,0,0,12.55078-2.50976,32.75935,32.75935,0,0,0,10.49707-7.07422l8.44239,8.44336a45.20935,45.20935,0,0,1-14.03321,9.46973A43.18136,43.18136,0,0,1,2758.78923,1001.3959Zm47.23535-65.49122a46.31733,46.31733,0,0,0-5.248-16.42968,50.34089,50.34089,0,0,0-10.38282-13.23438,46.67835,46.67835,0,0,0-31.60449-12.09472,47.44052,47.44052,0,0,0-17.34277,3.19531,46.28744,46.28744,0,0,0-14.48926,8.89941,50.26009,50.26009,0,0,0-10.38281,13.23438,46.26013,46.26013,0,0,0-5.249,16.42968Z"/><path d="M2882.46794,881.59609a43.08685,43.08685,0,0,1,22.59082,6.16113,45.34489,45.34489,0,0,1,16.20215,16.42969,45.60317,45.60317,0,0,1,16.08691-16.42969,42.9035,42.9035,0,0,1,22.70508-6.16113,43.4263,43.4263,0,0,1,17.34278,3.53613,44.62865,44.62865,0,0,1,23.8457,23.84668,43.42589,43.42589,0,0,1,3.53711,17.3418v72.1084h-12.09375V926.3207a32.35006,32.35006,0,0,0-32.63184-32.63086,33.31214,33.31214,0,0,0-12.89258,2.50977,31.98507,31.98507,0,0,0-17.456,17.34277,32.42215,32.42215,0,0,0-2.51074,12.77832v72.1084h-11.86524V926.3207a31.28176,31.28176,0,0,0-2.625-12.77832,34.001,34.001,0,0,0-7.07324-10.38281,32.38859,32.38859,0,0,0-23.16211-9.46973,33.31214,33.31214,0,0,0-12.89258,2.50977,31.99337,31.99337,0,0,0-17.456,17.34277,32.42215,32.42215,0,0,0-2.51074,12.77832v72.1084h-11.86524V926.3207a43.359,43.359,0,0,1,3.53711-17.3418,44.9329,44.9329,0,0,1,23.73145-23.84668A43.15255,43.15255,0,0,1,2882.46794,881.59609Z"/><path d="M3072.32146,1000.71132a43.15446,43.15446,0,0,1-17.457-3.5371,45.243,45.243,0,0,1-23.73145-23.73243,43.08465,43.08465,0,0,1-3.53711-17.45605V884.10586h12.09375v71.87988a33.24124,33.24124,0,0,0,2.51074,12.89258,31.9934,31.9934,0,0,0,17.3418,17.457,32.87322,32.87322,0,0,0,35.94043-6.96,33.60174,33.60174,0,0,0,7.07422-10.49707,32.06793,32.06793,0,0,0,2.624-12.89258V884.10586H3117.047v127.10156a43.17786,43.17786,0,0,1-3.53711,17.457,45.243,45.243,0,0,1-23.73242,23.73145,43.1603,43.1603,0,0,1-17.456,3.5371v-11.86621a31.28115,31.28115,0,0,0,12.77832-2.624,33.72841,33.72841,0,0,0,17.457-17.45605,31.28243,31.28243,0,0,0,2.624-12.7793V986.33535a45.89582,45.89582,0,0,1-14.60449,10.49609A43.22362,43.22362,0,0,1,3072.32146,1000.71132Z"/><path d="M2181.25212,939.32851c0-1.77246.08692-3.51928.23194-5.249h-779.3667V945.9457h779.49438A62.05325,62.05325,0,0,1,2181.25212,939.32851Z"/><path d="M2699.0031,940.01308q0-3.00806.282-5.93359h-20.13159v5.249a61.92408,61.92408,0,0,1-.36035,6.61719h20.49243Q2699.00615,943.023,2699.0031,940.01308Z"/><path d="M2560.39812,945.9457a62.0529,62.0529,0,0,1-.35987-6.61719c0-1.77246.08716-3.51928.23218-5.249h-20.77026c.14526,1.72974.23242,3.47656.23242,5.249v6.61719Z"/><path d="M2319.94841,945.9457a61.7998,61.7998,0,0,1-.416-7.07422c0-1.61694.07812-3.21069.19873-4.792h-19.36866c.14527,1.72974.23243,3.47656.23243,5.249v6.61719Z"/><path d="M1271.769,1124.11518c.17663-2.65553.50769-5.311.50795-7.96653q.03547-364.89479.022-729.78955c0-2.63865,0-5.2773,0-8.06751h17.89763v5.84917q0,367.57782-.00746,735.15564c0,1.60624-.11235,3.21254-.17224,4.81878Z"/><path d="M1159.84811,689.5667c-1.05742,6.45627-2.03674,12.9265-3.18463,19.36666-10.53336,59.09862-44.4967,99.72916-98.56388,124.163C1027.4,846.96989,994.85248,853.04467,961.31,853.54c-29.323.433-58.65607.1957-87.98466.25371-1.93748.00384-3.8749.00046-6.45522.00046v153.553H754.548V495.6537c1.67517-.1209,3.3842-.3529,5.0931-.35195,72.60887.04079,145.23444-.82236,217.82084.4848,48.78631.87856,93.66077,15.19269,130.45149,49.13042,26.69579,24.62565,42.118,55.45834,48.53507,90.988,1.22428,6.779,2.27095,13.59,3.39965,20.38619Zm-293.027-92.5041c-.10764,1.73114-.26933,3.12061-.26966,4.51011-.01337,49.00089.03937,98.00191-.10142,147.0024-.01218,4.23927,1.21466,5.50086,5.42454,5.47751,27.89747-.15485,55.7998.17722,83.69242-.22109a142.53671,142.53671,0,0,0,28.12337-3.11345c36.14147-7.87009,60.05613-34.997,61.77886-69.36255.94145-18.78065-1.53424-36.81769-13.00571-52.48118-16.11907-22.00941-39.4857-30.48636-65.23695-31.53736-32.49429-1.32621-65.07664-.49511-97.62105-.58182C868.89815,596.75328,868.19039,596.90631,866.82112,597.0626Z"/><path d="M310.94189,933.08546c22.27472-26.674,44.14831-52.86756,66.25016-79.3345,5.47884,4.20058,10.65063,8.25437,15.91361,12.18608,30.12711,22.50648,62.78263,39.68518,100.15346,46.47958,24.81485,4.51162,49.69544,5.77013,74.2762-1.58747,10.584-3.16806,20.001-8.36562,27.57445-16.74968,13.06271-14.46077,15.54151-46.62991-7.65052-61.99725-16.32553-10.81746-34.53352-17.02717-53.03436-22.47264-30.11068-8.86265-60.51484-16.7581-90.48112-26.07215-24.131-7.50036-47.03925-17.98927-67.11947-33.80932-23.2045-18.28149-37.13871-42.12294-42.31257-71.08786-5.63135-31.52619-4.79175-62.68865,7.20962-92.78159,16.90687-42.39328,48.778-69.17162,90.68962-84.88219,33.08315-12.40122,67.45013-14.703,102.40239-12.28911,37.26836,2.57383,72.92246,11.25681,106.80767,27.05713,21.024,9.80328,47.91559,26.70008,59.23306,37.36473L642.731,637.38758c-4.81394-3.13252-9.10015-5.97841-13.44159-8.73747-27.75838-17.64092-56.8653-32.21107-89.4653-38.57281-20.01719-3.90625-40.12817-4.89347-59.99114.70859-15.96838,4.50367-29.66207,12.65-34.85006,29.51424-5.50247,17.88639-1.341,38.14424,18.0595,49.78936,15.32292,9.19753,32.14011,14.57666,49.08549,19.56936,29.76069,8.76847,59.81113,16.60391,89.36447,26.01066,25.64,8.16115,49.75146,19.8783,70.71325,37.21969,25.83227,21.37064,39.8496,48.95773,43.14594,82.19015,2.99464,30.19149.38654,59.66265-12.13528,87.61682-17.39061,38.82366-47.94857,63.2221-87.03056,77.90022-31.96558,12.00548-65.241,15.379-99.0762,14.14921-76.214-2.76986-143.6645-28.48462-201.97935-77.80915C313.78655,935.8,312.53472,934.55491,310.94189,933.08546Z"/></svg>